<?xml version="1.0" encoding="utf-8"?>
<!-- Generator: Adobe Illustrator 22.1.0, SVG Export Plug-In . SVG Version: 6.00 Build 0)  -->
<svg version="1.1" id="레이어_1" xmlns="http://www.w3.org/2000/svg" xmlns:xlink="http://www.w3.org/1999/xlink" x="0px"
	 y="0px" viewBox="0 0 194 34" style="enable-background:new 0 0 194 34;" xml:space="preserve">
<style type="text/css">
	.st0{fill:#1E1F1F;}
</style>
<g>
	<g>
		<path class="st0" d="M16,16.3c-0.4-0.5-0.9-0.9-1.4-1.1c-0.5-0.3-1.1-0.4-1.6-0.5c0.2-0.7,0.4-1.5,0.6-2.3
			c0.1-0.8,0.2-1.7,0.2-2.6c0-0.7-0.1-1.4-0.2-2.2c-0.1-0.8-0.4-1.6-0.7-2.2L9.5,6.4C9.7,6.7,9.9,7.2,10,7.9
			c0.1,0.7,0.2,1.3,0.2,1.8c0,1.4-0.1,2.7-0.4,3.7c-0.3,1-0.7,2-1.3,2.9C8,17.2,7.3,18,6.4,18.8c-0.9,0.8-1.8,1.6-3,2.5l2,2.5
			c1.4-1,2.7-2.1,3.8-3.2c1.1-1.1,2-2.2,2.7-3.5c0.3,0.1,0.7,0.3,0.9,0.5c0.3,0.2,0.5,0.4,0.7,0.7c0.4,0.5,1,1.3,1.6,2.4
			c0.6,1,1.3,2.1,2.1,3.3l2.5-1.8c-0.8-1.3-1.5-2.4-2.1-3.4C17.1,17.8,16.5,17,16,16.3z M22.6,12.1h-5.2V15h5.2v13.9H26V5h-3.5V12.1
			z M47.4,15.5c-0.8,0.4-1.6,0.7-2.4,1c-0.8,0.2-1.7,0.4-2.6,0.5c0.4-1.4,0.7-2.9,0.9-4.6c0.2-1.6,0.4-3.2,0.4-4.7
			c0-0.8-0.2-1.4-0.6-1.8c-0.4-0.4-1-0.6-1.9-0.6h-11v2.8h9.4c0.2,0,0.4,0.1,0.6,0.2c0.1,0.1,0.2,0.3,0.2,0.7c0,0.5,0,1.1-0.1,1.8
			c-0.1,0.7-0.1,1.4-0.3,2.1c-0.1,0.7-0.3,1.5-0.4,2.2c-0.2,0.7-0.3,1.4-0.5,2.1H28.7v2.8h6.4v8.8h3.5v-8.8H40
			c1.2,0,2.4-0.1,3.7-0.3c1.3-0.2,2.5-0.5,3.6-1.1v10.4h3.4V5h-3.4V15.5z M73.9,5.6H55.8v2.8h18.1V5.6z M66.7,19.1H74v-2.8h-3.5
			c0.2-0.5,0.4-1,0.5-1.5c0.1-0.5,0.1-1,0.1-1.6V9.6h-3.3v4c0,0.4,0,0.9-0.1,1.4c-0.1,0.5-0.2,1-0.3,1.4h-5.2
			c-0.2-0.5-0.4-0.9-0.4-1.4c-0.1-0.5-0.1-0.9-0.1-1.4v-4h-3.3v3.7c0,0.7,0.1,1.2,0.2,1.7c0.1,0.5,0.3,0.9,0.5,1.4h-3.5v2.8h7.5v4.4
			h-9.7v2.8h23.1v-2.8h-9.9V19.1z M98.9,18.4c-0.3-0.4-0.7-0.7-1.1-1c-0.4-0.3-0.9-0.5-1.4-0.6c0.9-1.2,1.7-2.4,2.3-3.5
			c0.6-1.1,0.9-2.1,1-3c0.1-0.6,0-1.2-0.3-1.7c-0.3-0.5-0.8-0.8-1.6-0.8h-3.4c0.3-0.5,0.4-1.1,0.5-1.8c0.1-0.6,0.1-1.3-0.1-1.9
			l-0.2-0.9l-3.2,0.9l0.2,0.7c0.2,0.5,0.2,1,0.2,1.6c-0.1,0.5-0.2,1-0.4,1.4h-4.8v2.8h8.8c0.2,0,0.4,0.1,0.5,0.3
			c0.1,0.2,0.1,0.4,0,0.8c-0.3,0.8-0.8,1.6-1.4,2.5c-0.6,0.9-1.4,1.8-2.2,2.8c-0.9,0.9-1.9,1.8-2.9,2.7c-1.1,0.9-2.2,1.7-3.3,2.5
			l1.8,2.5c1.3-0.8,2.5-1.7,3.7-2.7c1.2-1,2.3-2.1,3.3-3.1c0.4,0.1,0.7,0.3,1,0.5c0.3,0.2,0.6,0.5,0.9,0.8c0.5,0.6,1,1.3,1.5,2
			c0.5,0.8,1.1,1.6,1.7,2.5l2.4-1.8c-0.5-0.8-1.1-1.6-1.7-2.4C99.9,19.8,99.4,19.1,98.9,18.4z M103.9,28.9h3.5V5h-3.5V28.9z
			 M115.5,15.9c1.5,1.2,3.5,1.7,6,1.7c2.5,0,4.5-0.6,5.9-1.7c1.5-1.2,2.2-2.7,2.2-4.7c0-2-0.7-3.6-2.2-4.8c-1.5-1.2-3.5-1.8-5.9-1.8
			c-2.5,0-4.5,0.6-6,1.8c-1.5,1.2-2.2,2.8-2.2,4.8C113.3,13.2,114,14.7,115.5,15.9z M118.1,8.4c0.9-0.6,2-0.9,3.3-0.9
			c1.3,0,2.4,0.3,3.3,0.9c0.9,0.6,1.4,1.5,1.4,2.8c0,1.2-0.5,2.2-1.4,2.8c-0.9,0.6-2.1,0.9-3.3,0.9c-1.3,0-2.4-0.3-3.3-0.9
			c-0.9-0.6-1.4-1.5-1.4-2.8C116.8,9.9,117.2,9,118.1,8.4z M110.1,22.5h5.4v7.3h3.4v-7.3h5.4v7.3h3.4v-7.3h5.6v-2.8h-23.1V22.5z
			 M138.4,17.1c0.6,0.6,1.4,1.1,2.3,1.4c0.9,0.3,1.9,0.5,3,0.5s2.1-0.2,3-0.5c0.9-0.3,1.7-0.8,2.3-1.4c0.6-0.6,1.1-1.3,1.5-2.2
			c0.4-0.8,0.5-1.8,0.5-2.9c0-1-0.2-2-0.6-2.8c-0.4-0.8-0.9-1.6-1.5-2.2c-0.6-0.6-1.4-1.1-2.3-1.4c-0.9-0.3-1.9-0.5-2.9-0.5
			c-1.1,0-2.1,0.2-3,0.5c-0.9,0.3-1.7,0.8-2.3,1.4c-0.6,0.6-1.1,1.3-1.5,2.2c-0.4,0.9-0.5,1.8-0.5,2.8c0,1.1,0.2,2,0.5,2.9
			C137.3,15.7,137.8,16.5,138.4,17.1z M140.9,9c0.7-0.7,1.7-1.1,2.8-1.1s2.1,0.4,2.8,1.1c0.7,0.7,1.1,1.7,1.1,3
			c0,1.4-0.4,2.4-1.1,3.1c-0.7,0.7-1.7,1-2.8,1s-2.1-0.3-2.8-1c-0.7-0.7-1.1-1.7-1.1-3.1C139.8,10.8,140.2,9.8,140.9,9z M153.9,20.5
			c-1.2,0.7-2.4,1.2-3.7,1.5c-1.3,0.3-2.9,0.5-4.8,0.5h-9.9v2.8h9.7c1.8,0,3.4-0.2,4.9-0.5c1.5-0.3,2.7-0.8,3.8-1.4v5.6h3.5V5h-3.5
			V20.5z M175,12.6c1.5-0.8,2.7-1.7,3.6-2.8c0.8,0,1.5,0.2,2,0.4c0.5,0.2,1,0.5,1.5,0.8c0.7,0.5,1.4,1,2.3,1.6
			c0.9,0.6,1.8,1.3,2.8,2l1.8-2.4c-0.9-0.7-1.8-1.3-2.7-2c-0.9-0.6-1.7-1.2-2.4-1.6c-0.4-0.3-1-0.5-1.6-0.7
			c-0.6-0.2-1.4-0.3-2.2-0.3c0.1-0.3,0.2-0.7,0.3-1c0.1-0.3,0.1-0.7,0.1-1.1c0-0.4,0-0.7-0.1-1.1c-0.1-0.4-0.2-0.8-0.3-1.1L176.5,4
			c0.1,0.2,0.1,0.5,0.2,0.9c0,0.3,0.1,0.6,0.1,0.7c0,1.1-0.6,2.2-1.7,3.2c-1.1,1-3,1.9-5.8,2.7l0.8,2.9
			C171.9,14,173.5,13.3,175,12.6z M190.6,18.3v-2.7h-23.1v2.7h9.5V21h-7.1v2.7h2.8v1.8c0,0.5,0,0.9,0.1,1.3s0.2,0.8,0.5,1.4h-3.3
			v2.7h18.2v-2.7h-3.3c0.2-0.6,0.4-1.1,0.5-1.5c0.1-0.5,0.1-0.9,0.1-1.2v-1.6h2.7V21h-7.5v-2.7H190.6z M181.9,23.7v1.8
			c0,0.4,0,0.9-0.1,1.3c-0.1,0.4-0.1,0.9-0.2,1.3h-5.3c-0.1-0.5-0.2-1-0.2-1.4c0-0.4-0.1-0.8-0.1-1.2v-1.7H181.9z"/>
	</g>
</g>
</svg>
