<?xml version="1.0" encoding="utf-8"?>
<!-- Generator: Adobe Illustrator 22.1.0, SVG Export Plug-In . SVG Version: 6.00 Build 0)  -->
<svg version="1.1" id="레이어_1" xmlns="http://www.w3.org/2000/svg" xmlns:xlink="http://www.w3.org/1999/xlink" x="0px"
	 y="0px" viewBox="0 0 160 34" style="enable-background:new 0 0 160 34;" xml:space="preserve">
<style type="text/css">
	.st0{fill:#1E1F1F;}
</style>
<g>
	<g>
		<path class="st0" d="M14.9,17.8c1.2-0.1,2.4-0.3,3.5-0.5c1.1-0.3,2.2-0.6,3.2-1.1V4.6H4.5v9.9c0,1.3,0.3,2.2,1,2.6
			c0.7,0.5,1.7,0.7,3,0.7h2.9v4.7H1.7v2.8h23.1v-2.8h-9.8V17.8z M9,15.1c-0.5,0-0.8-0.1-0.9-0.3c-0.1-0.2-0.2-0.5-0.2-1V7.4h10.2
			v6.8c-0.8,0.3-1.6,0.5-2.4,0.7c-0.8,0.1-1.5,0.2-2.4,0.2H9z M41.8,7.3C41.9,7.5,42,7.7,42,8.1c-0.1,1.2-0.2,2.5-0.4,3.9
			c-0.2,1.4-0.4,2.6-0.7,3.7l3.1,0.5c0.4-1.6,0.7-3.2,0.9-4.8c0.2-1.6,0.4-3.1,0.4-4.4c0-0.8-0.2-1.4-0.5-1.9
			c-0.4-0.5-1.1-0.8-2.1-0.8H28.3v2.8h12.9C41.5,7.1,41.7,7.2,41.8,7.3z M25.7,20h9.2v8.8h3.5V20h10.4v-2.8H25.7V20z M68.6,17.6
			c-0.7,0.4-1.5,0.8-2.4,1.1c-0.9,0.3-1.8,0.5-2.7,0.7c-0.9,0.2-1.8,0.3-2.6,0.4c-0.8,0.1-1.5,0.1-2,0.1h-2.7
			c-0.4,0-0.7-0.1-0.8-0.2c-0.1-0.1-0.2-0.4-0.2-0.7V15h4.4c0.8,0,1.5-0.1,2.2-0.2c0.7-0.1,1.4-0.3,2.2-0.6V5H51.6v2.8h8.9v4.6h-8.9
			v6.8c0,1.1,0.3,2,0.8,2.6c0.5,0.6,1.4,0.9,2.5,0.9h3.9c0.7,0,1.5,0,2.3-0.1c0.8-0.1,1.7-0.2,2.6-0.4c0.9-0.2,1.7-0.4,2.5-0.7
			c0.8-0.3,1.6-0.6,2.3-0.9v7.4H72V4h-3.5V17.6z M103.1,4h-3.5v23.9h3.5v-8.9h4.2v-2.9h-4.2v-4.7h4.2V8.6h-4.2V4z M95,7.5
			c-0.6-0.7-1.4-1.3-2.3-1.7c-0.9-0.4-2-0.6-3.1-0.6c-1.2,0-2.2,0.2-3.1,0.6c-0.9,0.4-1.7,1-2.3,1.7C83.4,8.2,82.9,9,82.6,10
			c-0.3,1-0.5,2-0.5,3.1c0,1.1,0.2,2.2,0.5,3.1c0.3,1,0.8,1.8,1.5,2.5c0.6,0.7,1.4,1.3,2.3,1.7c0.9,0.4,2,0.6,3.2,0.6
			c1.2,0,2.2-0.2,3.1-0.6c0.9-0.4,1.7-1,2.3-1.7c0.6-0.7,1.1-1.5,1.5-2.5c0.3-1,0.5-2,0.5-3.1c0-1.1-0.2-2.1-0.5-3.1
			C96.1,9,95.6,8.2,95,7.5z M93.3,15.1c-0.2,0.6-0.4,1.1-0.8,1.6c-0.3,0.5-0.8,0.8-1.3,1.1s-1.1,0.4-1.8,0.4c-0.7,0-1.3-0.1-1.8-0.4
			c-0.5-0.3-0.9-0.6-1.3-1.1c-0.3-0.5-0.6-1-0.8-1.6c-0.2-0.6-0.3-1.3-0.3-2c0-0.7,0.1-1.3,0.3-2c0.2-0.6,0.4-1.2,0.8-1.6
			c0.3-0.5,0.8-0.8,1.3-1.1C88.2,8.2,88.8,8,89.5,8c0.7,0,1.2,0.1,1.8,0.4c0.5,0.3,0.9,0.7,1.3,1.1c0.3,0.5,0.6,1,0.8,1.6
			c0.2,0.6,0.3,1.3,0.3,2C93.6,13.8,93.5,14.5,93.3,15.1z M127.4,6.1h-4.6v1.7c-0.5-1.3-1.4-2.4-2.6-3.1c-1.2-0.8-2.6-1.2-4-1.2
			c-0.9,0-1.8,0.2-2.7,0.5c-0.9,0.3-1.6,0.8-2.2,1.3c-0.7,0.6-1.2,1.2-1.5,2.1c-0.4,0.8-0.6,1.7-0.6,2.7c0,1.1,0.2,2,0.6,2.8
			c0.4,0.8,0.9,1.5,1.5,2.1c0.6,0.6,1.4,1,2.2,1.2c0.8,0.3,1.8,0.4,2.7,0.4c1.5,0,2.8-0.4,4-1.1c1.2-0.8,2.1-1.8,2.6-3.2v2.2h4.6v1
			c0,0.7-0.1,1.3-0.2,1.8c-0.2,0.5-0.4,0.9-0.8,1.2c-0.5-0.2-1.1-0.4-1.7-0.6c-0.6-0.2-1.2-0.2-1.9-0.2c-1,0-1.9,0.2-2.8,0.5
			c-0.9,0.3-1.6,0.7-2.3,1.3c-0.6,0.6-1.2,1.2-1.5,2c-0.4,0.8-0.6,1.6-0.6,2.6c0,0.9,0.2,1.8,0.6,2.6c0.4,0.8,0.9,1.4,1.5,2
			c0.7,0.6,1.4,1,2.3,1.3s1.8,0.5,2.8,0.5c1,0,1.9-0.2,2.7-0.5c0.9-0.3,1.6-0.7,2.3-1.3c0.6-0.6,1.2-1.2,1.5-2
			c0.4-0.8,0.6-1.6,0.6-2.6c0-0.8-0.1-1.5-0.4-2.2c-0.3-0.7-0.6-1.3-1.1-1.8c0.7-0.5,1.3-1.2,1.7-1.9c0.4-0.7,0.6-1.6,0.6-2.6V3.7
			h-3.4V6.1z M118.9,12.7c-0.6,0.7-1.5,1.1-2.7,1.1c-1.1,0-2-0.4-2.7-1.1c-0.7-0.7-1-1.6-1-2.7c0-1,0.3-1.9,1-2.6
			c0.6-0.8,1.5-1.2,2.7-1.2c1.2,0,2.1,0.4,2.7,1.2c0.6,0.8,1,1.6,1,2.6C119.9,11.1,119.5,12,118.9,12.7z M125.5,26.8
			c-0.7,0.6-1.5,1-2.6,1c-1.1,0-2-0.3-2.7-1c-0.7-0.7-1-1.5-1-2.6c0-1.1,0.3-2,1-2.6c0.7-0.7,1.6-1,2.7-1c1.1,0,2,0.3,2.6,1
			c0.7,0.7,1,1.5,1,2.6C126.5,25.3,126.1,26.1,125.5,26.8z M127.4,11.9H123c0.1-0.3,0.1-0.6,0.2-0.9c0-0.3,0.1-0.6,0.1-1
			c0-0.2,0-0.4,0-0.6c0-0.2-0.1-0.4-0.1-0.6h4.3V11.9z M142.9,13.2c0.3,0.2,0.6,0.4,0.9,0.7c0.2,0.3,0.5,0.6,0.7,0.8
			c0.2,0.3,0.5,0.5,0.7,0.8c0.2,0.3,0.4,0.5,0.7,0.8c0.2,0.3,0.5,0.6,0.7,0.8l2.2-2c-0.4-0.5-0.9-1.1-1.4-1.7
			c-0.5-0.6-1-1.1-1.4-1.7c-0.3-0.3-0.6-0.5-1-0.7c-0.3-0.2-0.7-0.3-1.2-0.4c0.6-0.7,1-1.5,1.4-2.2s0.6-1.5,0.7-2.3
			c0.1-0.5-0.1-1-0.3-1.5c-0.3-0.4-0.8-0.7-1.6-0.7h-9.7v2.7h7.2c0.2,0,0.4,0.1,0.5,0.2c0.1,0.2,0.1,0.4-0.1,0.7
			c-0.6,1.3-1.7,2.5-3,3.7c-1.4,1.2-3.2,2.3-5.6,3.4l1.3,2.6c1.4-0.6,2.7-1.3,3.9-2.1c1.2-0.8,2.3-1.6,3.3-2.5
			C142.3,12.9,142.6,13,142.9,13.2z M154.2,9.4V3.7h-3.4v11.8c0,0.7-0.1,1.4-0.2,1.8c-0.2,0.5-0.4,0.9-0.8,1.2
			c-0.5-0.2-1.1-0.4-1.7-0.6c-0.6-0.2-1.2-0.2-1.9-0.2c-1,0-1.9,0.2-2.8,0.5c-0.9,0.3-1.6,0.7-2.3,1.3c-0.6,0.6-1.2,1.2-1.5,2
			c-0.4,0.8-0.6,1.6-0.6,2.6c0,0.9,0.2,1.8,0.6,2.6c0.4,0.8,0.9,1.4,1.5,2c0.7,0.6,1.4,1,2.3,1.3s1.8,0.5,2.8,0.5
			c1,0,1.9-0.2,2.7-0.5c0.9-0.3,1.6-0.7,2.3-1.3c0.6-0.6,1.2-1.2,1.5-2c0.4-0.8,0.6-1.6,0.6-2.6c0-0.8-0.1-1.5-0.4-2.2
			c-0.3-0.7-0.6-1.3-1.1-1.8c0.7-0.5,1.3-1.2,1.7-1.9c0.4-0.7,0.6-1.6,0.6-2.6v-3.5h4.2V9.4H154.2z M148.8,26.8
			c-0.7,0.6-1.5,1-2.6,1c-1.1,0-2-0.3-2.7-1c-0.7-0.7-1-1.5-1-2.6c0-1.1,0.3-2,1-2.6c0.7-0.7,1.6-1,2.7-1c1.1,0,2,0.3,2.6,1
			c0.7,0.7,1,1.5,1,2.6C149.8,25.3,149.5,26.1,148.8,26.8z"/>
	</g>
</g>
</svg>
