<?xml version="1.0" encoding="utf-8"?>
<!-- Generator: Adobe Illustrator 22.1.0, SVG Export Plug-In . SVG Version: 6.00 Build 0)  -->
<svg version="1.1" id="레이어_1" xmlns="http://www.w3.org/2000/svg" xmlns:xlink="http://www.w3.org/1999/xlink" x="0px"
	 y="0px" viewBox="0 0 252 34.6" style="enable-background:new 0 0 252 34.6;" xml:space="preserve">
<style type="text/css">
	.st0{fill:#2D2E2E;}
	.st1{fill:url(#SVGID_1_);}
	.st2{fill:url(#SVGID_2_);}
</style>
<g>
	<g>
		<path class="st0" d="M19.5,12.5h-5.2v2.9h5.2v13.9H23V5.4h-3.4V12.5z M13,16.6c-0.4-0.5-0.9-0.9-1.4-1.1C11,15.2,10.5,15.1,10,15
			c0.2-0.7,0.4-1.5,0.6-2.3c0.1-0.8,0.2-1.7,0.2-2.6c0-0.7-0.1-1.4-0.2-2.2c-0.1-0.8-0.4-1.6-0.7-2.2L6.5,6.8C6.8,7.2,6.8,7.7,7,8.4
			c0.1,0.7,0.2,1.3,0.2,1.8c0,1.4-0.1,2.7-0.4,3.7c-0.3,1-0.7,2-1.3,2.9s-1.3,1.7-2.1,2.5c-0.9,0.8-1.8,1.6-3,2.5l2,2.5
			c1.4-1,2.7-2.1,3.8-3.1c1.1-1.1,2-2.2,2.7-3.5c0.3,0.1,0.7,0.3,0.9,0.5c0.3,0.2,0.5,0.4,0.7,0.7c0.4,0.5,1,1.3,1.6,2.4
			c0.6,1,1.3,2.1,2.1,3.3l2.5-1.8c-0.8-1.3-1.5-2.4-2.1-3.4C14,18.2,13.5,17.3,13,16.6z M45.2,15.9c-0.8,0.4-1.6,0.7-2.4,1
			c-0.8,0.2-1.7,0.4-2.6,0.5c0.4-1.4,0.7-2.9,0.9-4.6c0.2-1.6,0.4-3.2,0.4-4.7c0-0.8-0.2-1.4-0.6-1.8c-0.4-0.4-1-0.6-1.9-0.6h-11
			v2.8h9.4c0.2,0,0.4,0.1,0.6,0.1c0.1,0.1,0.2,0.3,0.2,0.7c0,0.5,0,1.1-0.1,1.8s-0.2,1.4-0.3,2.1c-0.1,0.7-0.3,1.5-0.4,2.2
			c-0.2,0.7-0.3,1.4-0.5,2.1H26.6v2.8H33v8.8h3.5v-8.8H38c1.2,0,2.4-0.1,3.7-0.3c1.3-0.2,2.5-0.5,3.6-1.1v10.4h3.5V5.4h-3.5
			L45.2,15.9L45.2,15.9z M72.6,6H54.5v2.8h18.1V6z M65.5,19.5h7.3v-2.8h-3.5c0.2-0.5,0.4-1,0.5-1.5s0.2-1,0.2-1.6V10h-3.3v4
			c0,0.4,0,0.9-0.1,1.4s-0.2,1-0.3,1.4h-5.2c-0.2-0.5-0.4-0.9-0.4-1.4c-0.1-0.5-0.1-0.9-0.1-1.4v-4h-3.3v3.7c0,0.7,0.1,1.2,0.2,1.7
			c0.1,0.5,0.3,0.9,0.5,1.3h-3.5v2.8h7.5v4.4h-9.7v2.8h23.1v-2.8h-9.9V19.5z M90,16.6c-0.4-0.5-0.9-0.9-1.4-1.2
			c-0.5-0.2-1.1-0.4-1.7-0.5c0.3-0.8,0.5-1.7,0.6-2.6c0.2-0.9,0.2-1.9,0.2-2.9c0-0.7-0.1-1.3-0.2-2c-0.1-0.6-0.4-1.3-0.7-1.9
			l-3.3,1.1C83.7,7,83.8,7.4,84,7.9c0.1,0.5,0.2,1,0.2,1.5c0,1.4-0.1,2.7-0.4,3.8c-0.3,1.1-0.7,2.1-1.3,3.1s-1.3,1.9-2.1,2.7
			c-0.9,0.9-1.8,1.7-3,2.6l2,2.5c1.4-1,2.6-2,3.7-3.1c1.1-1.1,2-2.3,2.7-3.6c0.4,0.1,0.7,0.3,1,0.5c0.3,0.2,0.6,0.4,0.8,0.7
			c0.4,0.5,1,1.3,1.6,2.4c0.6,1,1.3,2.1,2.1,3.3l2.6-1.8c-0.8-1.3-1.5-2.4-2.1-3.4C91.1,18.2,90.6,17.3,90,16.6z M96.1,5.4v23.9h3.5
			V5.4H96.1z"/>
	</g>
</g>
<g>
	<g>
		<g>
			
				<linearGradient id="SVGID_1_" gradientUnits="userSpaceOnUse" x1="122.55" y1="-352.4751" x2="122.55" y2="-381.4101" gradientTransform="matrix(1 0 0 -1 0 -349.68)">
				<stop  offset="4.507212e-03" style="stop-color:#F08719"/>
				<stop  offset="1" style="stop-color:#ED701A"/>
			</linearGradient>
			<polygon class="st1" points="117.8,27.5 117.8,19 129.6,19 129.6,14.9 117.8,14.9 117.8,7.1 131.5,7.1 131.5,2.8 113,2.8 
				113,31.8 132,31.8 132,27.5 			"/>
		</g>
	</g>
</g>
<g>
	<g>
		<g>
			
				<linearGradient id="SVGID_2_" gradientUnits="userSpaceOnUse" x1="193.15" y1="-352.1151" x2="193.15" y2="-381.7702" gradientTransform="matrix(1 0 0 -1 0 -349.68)">
				<stop  offset="4.507212e-03" style="stop-color:#F5AF16"/>
				<stop  offset="1" style="stop-color:#F5A717"/>
			</linearGradient>
			<path class="st2" d="M134.8,19.3h14.8v-4h-14.8V19.3z M149.5,7.1h7.9v24.7h4.7V7.1h7.9V2.8h-20.5L149.5,7.1L149.5,7.1z
				 M173.5,31.8h4.7V10.9h-4.7V31.8z M175.8,2.5c-0.8,0-1.4,0.3-1.9,0.8s-0.7,1.2-0.7,2s0.2,1.4,0.7,1.9s1.1,0.7,1.9,0.7
				c0.8,0,1.4-0.2,2-0.7c0.5-0.5,0.8-1.1,0.8-1.9c0-0.8-0.3-1.5-0.8-2C177.1,2.7,176.5,2.5,175.8,2.5z M194,27.5
				c-0.8,0.3-1.7,0.5-2.6,0.5c-0.8,0-1.5-0.2-2.2-0.5c-0.6-0.4-1.2-0.8-1.6-1.5c-0.5-0.6-0.8-1.3-1-2.1c-0.2-0.8-0.4-1.6-0.4-2.5
				s0.1-1.8,0.4-2.6c0.2-0.8,0.6-1.5,1-2.1c0.5-0.6,1-1.1,1.6-1.4c0.6-0.3,1.4-0.5,2.2-0.5s1.5,0.1,2.1,0.2c0.6,0.2,1.3,0.5,2.1,1
				l2-3.2c-0.8-0.5-1.7-1-2.7-1.4s-2.2-0.6-3.6-0.6c-1.5,0-2.9,0.3-4.1,0.9c-1.2,0.6-2.2,1.4-3,2.4s-1.5,2.1-1.9,3.4
				s-0.7,2.7-0.7,4.1c0,1.6,0.2,3,0.7,4.3c0.4,1.3,1.1,2.4,1.9,3.4c0.8,0.9,1.8,1.7,3,2.2s2.6,0.8,4.1,0.8c1.3,0,2.6-0.2,3.6-0.6
				c1.1-0.4,2.1-1,3.2-1.9l-2.1-3.1C195.5,26.9,194.8,27.2,194,27.5z M217.1,13.7l-3.3-3.1l-7.9,8.7V9.6c0-3.4-1.5-5.8-4.5-7.2
				L199,6.3c0.4,0.3,0.8,0.5,1.1,0.8s0.5,0.6,0.7,0.9c0.2,0.3,0.3,0.7,0.4,1.1c0.1,0.4,0.1,1,0.1,1.6v21h4.6v-8.5l8.6,8.8l3.2-2.9
				l-7.6-8L217.1,13.7z M228.2,10.6c-1.4,0-2.7,0.2-3.9,0.7s-2.2,1.2-3.1,2.1c-0.9,0.9-1.5,2-2,3.4c-0.5,1.3-0.7,2.9-0.7,4.6
				c0,1.9,0.3,3.5,0.9,4.8c0.6,1.3,1.3,2.4,2.3,3.3c0.9,0.9,2,1.5,3.3,1.9c1.2,0.4,2.5,0.6,3.8,0.6c1.5,0,2.9-0.2,4.4-0.7
				s2.8-1.1,3.9-1.8l-1.7-3.8c-0.7,0.4-1.6,0.9-2.7,1.4c-1.1,0.5-2.4,0.7-3.8,0.7c-1.6,0-2.9-0.4-4-1.3c-1-0.9-1.5-2-1.5-3.5h14.1
				v-1.3c0-3.6-0.8-6.4-2.4-8.3C233.5,11.5,231.2,10.6,228.2,10.6z M223.3,19.4c0.1-1.5,0.7-2.7,1.6-3.5c0.9-0.8,2-1.2,3.4-1.2
				c1.5,0,2.7,0.4,3.4,1.3c0.8,0.8,1.1,2,1.1,3.4H223.3z M249.2,27.6c-0.8,0-1.4-0.2-1.7-0.6s-0.5-1-0.5-1.7v-9h4.2v-4.1H247V6.1
				h-4.7v6.1h-2.7v4.1h2.7v9.4c0,0.8,0.1,1.5,0.4,2.2c0.3,0.7,0.6,1.4,1.1,1.9c0.5,0.6,1.1,1,1.9,1.3c0.7,0.3,1.6,0.5,2.6,0.5h3.2
				v-4.1L249.2,27.6L249.2,27.6z"/>
		</g>
	</g>
</g>
</svg>
