<?xml version="1.0" encoding="utf-8"?>
<!-- Generator: Adobe Illustrator 22.1.0, SVG Export Plug-In . SVG Version: 6.00 Build 0)  -->
<svg version="1.1" id="레이어_1" xmlns="http://www.w3.org/2000/svg" xmlns:xlink="http://www.w3.org/1999/xlink" x="0px"
	 y="0px" viewBox="0 0 110 40" style="enable-background:new 0 0 110 40;" xml:space="preserve">
<style type="text/css">
	.st0{fill:#333333;}
	.st1{fill:#F5A618;}
	.st2{opacity:0.1;fill:#040000;enable-background:new    ;}
	.st3{fill:#FFFFFF;}
</style>
<g>
	<g>
		<path class="st0" d="M54.8,18.3c0.3,0.2,0.6,0.3,1,0.4s0.8,0.1,1.2,0.1h5.6c0.8,0,1.7-0.1,2.5-0.4s1.6-0.6,2.1-1v-6.3H53.9v5.3
			c0,0.5,0.1,1,0.2,1.3C54.2,17.8,54.5,18.1,54.8,18.3z M57.1,13.3H64v2.5c-0.3,0.2-0.7,0.3-1.1,0.4c-0.4,0.1-0.7,0.1-1.1,0.1h-4
			c-0.3,0-0.5,0-0.6-0.1s-0.1-0.2-0.1-0.5C57.1,15.7,57.1,13.3,57.1,13.3z M65.1,28c-0.8,0.2-1.6,0.2-2.5,0.2h-5.1
			c-0.2,0-0.4-0.1-0.5-0.2s-0.1-0.3-0.1-0.5v-3.3h-3.3v4.3c0,0.7,0.2,1.3,0.7,1.7c0.5,0.4,1.1,0.6,1.9,0.6h6.6
			c1.2,0,2.1-0.1,2.9-0.3c0.8-0.2,1.6-0.4,2.4-0.7l-0.7-2.3C66.7,27.6,65.9,27.8,65.1,28z M51.7,22.7h7.7v3.4h3.2v-3.4h7.1v-2.5h-18
			C51.7,20.2,51.7,22.7,51.7,22.7z M84.8,23c-0.6,0.5-1.5,0.9-2.6,1.1s-2.4,0.4-3.8,0.4H71V27h7.5c1.6,0,2.9-0.1,3.9-0.3
			c1-0.2,1.8-0.5,2.5-0.9v3.7h3.3V10.9h-3.3L84.8,23L84.8,23z M77.3,22.1c1.7,0,3.1-0.5,4.2-1.4c1.1-1,1.6-2.3,1.6-4.1
			s-0.5-3.1-1.6-4.1s-2.4-1.4-4.2-1.4c-1.7,0-3.1,0.5-4.2,1.4c-1.1,1-1.6,2.3-1.6,4.1s0.5,3.2,1.6,4.1
			C74.2,21.6,75.6,22.1,77.3,22.1z M75.4,14.4c0.5-0.5,1.1-0.8,1.9-0.8s1.4,0.3,1.8,0.8c0.5,0.5,0.7,1.2,0.7,2.1
			c0,0.9-0.2,1.6-0.7,2.2c-0.5,0.5-1.1,0.8-1.8,0.8c-0.8,0-1.4-0.3-1.9-0.8s-0.7-1.2-0.7-2.2C74.7,15.7,74.9,15,75.4,14.4z
			 M104.6,10.9v7h-3.1v2.6h3.1v8.9h3.2V10.9H104.6z M100.2,21.2c-0.2-0.2-0.5-0.4-0.7-0.6s-0.5-0.3-0.7-0.4c0.7-0.9,1.3-1.8,1.7-2.7
			c0.4-0.9,0.7-1.6,0.8-2.3c0-0.6,0-1.1-0.3-1.5c-0.2-0.4-0.7-0.6-1.3-0.6h-2.5c0.2-0.3,0.3-0.6,0.3-1c0.1-0.4,0.1-0.7,0-1.2
			c0-0.1-0.1-0.2-0.1-0.3s-0.1-0.2-0.1-0.3s-0.1-0.2-0.1-0.3s-0.1-0.2-0.1-0.3l-3,0.8l0.3,0.9c0.1,0.3,0.1,0.6,0.1,0.9
			c0,0.3-0.1,0.6-0.2,0.8h-3.5v2.6h6.6c0.2,0,0.4,0.1,0.4,0.2c0,0.1,0,0.3-0.1,0.5c-0.3,0.6-0.6,1.2-1.1,1.9c-0.5,0.7-1,1.4-1.7,2
			c-0.6,0.7-1.3,1.4-2.1,2c-0.8,0.7-1.6,1.3-2.4,1.9l1.6,2.2c0.9-0.6,1.9-1.2,2.7-1.9c0.9-0.7,1.7-1.5,2.4-2.3
			c0.2,0.1,0.4,0.2,0.6,0.3c0.2,0.1,0.3,0.3,0.5,0.4c0.2,0.2,0.4,0.4,0.6,0.6c0.2,0.3,0.5,0.5,0.7,0.9c0.2,0.3,0.5,0.6,0.8,1
			c0.3,0.3,0.6,0.7,0.8,1l2.1-1.9c-0.5-0.6-1-1.2-1.5-1.8C101.1,22.2,100.7,21.7,100.2,21.2z"/>
	</g>
</g>
<circle class="st1" cx="18.8" cy="19.9" r="17.5"/>
<path class="st2" d="M25.4,25.6c-0.2-0.1-0.3-0.2-0.5-0.4c-0.8-0.5-1.6-1-2.4-1.5c-0.4-0.2-0.7-0.2-1,0.1c-0.5,0.5-1,0.9-1.5,1.4
	c-0.3,0.3-0.6,0.3-0.9,0.1c-2.4-1.4-4.1-3.4-5.1-5.9c-0.2-0.4-0.1-0.7,0.2-1c0.5-0.4,0.9-0.8,1.3-1.3c0.1-0.2,0.2-0.4,0.2-0.7
	c-0.3-1.3-0.6-2.5-1-3.8c-0.1-0.2-0.2-0.4-0.3-0.5c-0.5-0.3-1.8-0.4-2.3,0c-1.5,1.1-2.3,2.5-2.2,4.4c0.1,1.6,0.7,3,1.4,4.3
	c1.9,3.6,4.5,6.5,8.3,8.2c0.6,0.3,1.1,0.5,1.8,0.5c0.4,0.1,0.7,0.1,1.1,0.1c1.7-0.2,3.2-0.9,3.6-2.7C26.2,26.1,26.2,26.1,25.4,25.6z
	"/>
<path class="st2" d="M26.7,22.5L26.7,22.5c-0.4,0-0.6-0.3-0.6-0.6c0.1-2.3-0.8-4.5-2.4-6.1c-1.6-1.7-3.7-2.6-6-2.7
	c-0.3,0-0.6-0.3-0.6-0.6s0.3-0.6,0.6-0.6c2.6,0.1,5.1,1.2,6.9,3.1s2.8,4.4,2.7,7C27.4,22.3,27.1,22.5,26.7,22.5z"/>
<path class="st2" d="M23.7,22L23.7,22c-0.4,0-0.6-0.3-0.6-0.6c0-1.4-0.5-2.7-1.4-3.7s-2.2-1.6-3.6-1.6c-0.3,0-0.6-0.3-0.6-0.6
	s0.3-0.6,0.6-0.6c1.7,0,3.3,0.8,4.5,2s1.8,2.9,1.8,4.6C24.3,21.7,24.1,22,23.7,22z"/>
<path class="st3" d="M25.8,24.9c-0.2-0.1-0.3-0.2-0.5-0.4c-0.8-0.5-1.6-1-2.4-1.5c-0.4-0.2-0.7-0.2-1,0.1c-0.5,0.5-1,0.9-1.5,1.4
	c-0.3,0.3-0.6,0.3-0.9,0.1c-2.4-1.4-4.1-3.4-5.1-5.9c-0.2-0.4-0.1-0.7,0.2-1c0.5-0.4,0.9-0.8,1.3-1.3c0.1-0.2,0.2-0.4,0.2-0.7
	c-0.3-1.3-0.6-2.5-1-3.8c-0.1-0.2-0.2-0.4-0.3-0.5c-0.5-0.3-1.8-0.4-2.3,0c-1.5,1.1-2.3,2.5-2.2,4.4c0.1,1.6,0.7,3,1.4,4.3
	c1.9,3.6,4.5,6.5,8.3,8.2c0.6,0.3,1.1,0.5,1.8,0.5c0.4,0.1,0.7,0.1,1.1,0.1c1.7-0.2,3.2-0.9,3.6-2.7C26.6,25.5,26.6,25.5,25.8,24.9z
	"/>
<path class="st3" d="M27.2,21.9C27.1,21.9,27.1,21.9,27.2,21.9c-0.4,0-0.6-0.3-0.6-0.6c0.1-2.3-0.8-4.5-2.4-6.1
	c-1.6-1.7-3.7-2.6-6-2.7c-0.3,0-0.6-0.3-0.6-0.6s0.3-0.6,0.6-0.6c2.6,0.1,5.1,1.2,6.9,3.1s2.8,4.4,2.7,7
	C27.8,21.6,27.5,21.9,27.2,21.9z"/>
<path class="st3" d="M24.1,21.4L24.1,21.4c-0.4,0-0.6-0.3-0.6-0.6c0-1.4-0.5-2.7-1.4-3.7s-2.2-1.6-3.6-1.6c-0.3,0-0.6-0.3-0.6-0.6
	s0.3-0.6,0.6-0.6c1.7,0,3.3,0.8,4.5,2s1.8,2.9,1.8,4.6C24.7,21.1,24.5,21.4,24.1,21.4z"/>
</svg>
