<?xml version="1.0" encoding="utf-8"?>
<!-- Generator: Adobe Illustrator 22.1.0, SVG Export Plug-In . SVG Version: 6.00 Build 0)  -->
<svg version="1.1" id="레이어_1" xmlns="http://www.w3.org/2000/svg" xmlns:xlink="http://www.w3.org/1999/xlink" x="0px"
	 y="0px" viewBox="0 0 196 34" style="enable-background:new 0 0 196 34;" xml:space="preserve">
<style type="text/css">
	.st0{fill:#202020;}
</style>
<g>
	<g>
		<path class="st0" d="M2.6,21.1h9.8v7.7h3.5v-7.7h9.9v-2.8H2.6V21.1z M4.6,13.6l1,2.9c1.5-0.4,3.1-0.9,4.9-1.6
			c1.8-0.7,3.4-1.5,5-2.5c0.6,0.1,1.2,0.2,1.6,0.4c0.4,0.2,0.8,0.4,1.2,0.7c0.5,0.4,1,0.9,1.6,1.4c0.6,0.5,1.3,1.1,2,1.8l2-2.2
			c-0.4-0.3-0.7-0.6-1-0.9c-0.3-0.3-0.6-0.6-0.9-0.8c-0.3-0.3-0.6-0.5-0.9-0.8c-0.3-0.2-0.6-0.5-0.9-0.7c-0.3-0.2-0.6-0.4-1-0.5
			c-0.4-0.1-0.7-0.2-1.2-0.2c0.7-0.6,1.3-1.2,1.8-1.8c0.5-0.6,0.9-1.3,1.2-2c0.2-0.6,0.3-1.1,0-1.7c-0.2-0.5-0.7-0.8-1.5-0.8H5.6
			v2.8h11.5c-1.4,1.5-3.1,2.8-5.2,3.8C9.8,11.9,7.3,12.8,4.6,13.6z M44.6,16.4c0.8-0.6,1.4-1.4,1.8-2.3c0.5-0.9,0.7-2,0.7-3.2
			c0-1.2-0.2-2.3-0.7-3.2c-0.5-0.9-1.1-1.7-1.8-2.3c-0.8-0.6-1.7-1.1-2.7-1.4c-1-0.3-2.1-0.5-3.3-0.5c-1.2,0-2.3,0.2-3.3,0.5
			c-1,0.3-1.9,0.8-2.7,1.4c-0.8,0.6-1.4,1.4-1.8,2.3c-0.4,0.9-0.7,2-0.7,3.2c0,1.2,0.2,2.2,0.6,3.1c0.4,0.9,1,1.6,1.7,2.2v6.2h-5.3
			v2.8h23.1v-2.8h-5.8V16.4z M41.3,22.5h-5.4v-4.6c0.4,0.1,0.9,0.2,1.3,0.2c0.5,0,1,0.1,1.5,0.1c0.5,0,0.9,0,1.3-0.1
			c0.4,0,0.9-0.1,1.3-0.2V22.5z M42.2,14.2c-0.9,0.8-2.1,1.2-3.6,1.2c-1.5,0-2.7-0.4-3.6-1.2c-0.9-0.8-1.4-1.9-1.4-3.3
			c0-1.3,0.5-2.4,1.4-3.2c0.9-0.8,2.1-1.2,3.6-1.2c1.5,0,2.6,0.4,3.6,1.2c0.9,0.8,1.4,1.9,1.4,3.2C43.6,12.3,43.1,13.3,42.2,14.2z
			 M70.4,7c0.1,0.1,0.2,0.3,0.2,0.6c0,0.8-0.1,1.8-0.2,2.9c-0.1,1.2-0.3,2.3-0.6,3.3l3.1,0.4c0.1-0.6,0.2-1.2,0.4-1.9
			c0.1-0.7,0.2-1.4,0.3-2.2c0.1-0.7,0.1-1.4,0.2-2c0-0.6,0.1-1.2,0-1.6c-0.1-0.8-0.3-1.3-0.6-1.7c-0.3-0.4-0.9-0.6-1.7-0.6H60.2v2.7
			h9.7C70.1,6.8,70.3,6.8,70.4,7z M77.3,26.5c-1,0.2-2.1,0.2-3.3,0.2h-6.7c-0.3,0-0.5-0.1-0.6-0.2c-0.1-0.1-0.2-0.4-0.2-0.6v-5h-3.5
			v5.8c0,1,0.3,1.7,0.9,2.1c0.6,0.4,1.3,0.6,2.2,0.6H74c0.8,0,1.5,0,2.1-0.1c0.6,0,1.2-0.1,1.7-0.2c0.5-0.1,1.1-0.2,1.6-0.4
			c0.5-0.1,1.1-0.3,1.8-0.5l-0.7-2.6C79.4,26.1,78.3,26.4,77.3,26.5z M80.4,3.7h-3.4v10.5c-0.9,0.6-2,1.1-3.2,1.4
			c-1.2,0.3-2.5,0.5-4,0.5h-2.5v-5.2h-3.4V16h-4.6v2.7h10.5c1.5,0,2.8-0.1,4-0.4c1.2-0.3,2.2-0.7,3.1-1.2V22h3.4v-7.6h4.2v-2.8h-4.2
			V3.7z M97.1,6.6c0.1,0.1,0.2,0.3,0.2,0.6c0,0.8-0.1,1.7-0.2,2.8c-0.1,1-0.3,2.1-0.5,3.1l3.1,0.4c0.1-0.6,0.2-1.2,0.3-1.9
			c0.1-0.7,0.2-1.4,0.3-2c0.1-0.7,0.1-1.3,0.2-1.9c0-0.6,0.1-1.1,0.1-1.6c0-0.8-0.2-1.3-0.6-1.7C99.6,4,99,3.8,98.2,3.8H86.9v2.7
			h9.7C96.8,6.5,97,6.5,97.1,6.6z M111.2,10.5H107V3.7h-3.4v9.4c-0.9,0.6-2,1.1-3.2,1.4c-1.2,0.3-2.5,0.5-4,0.5H94v-5h-3.4v5H86v2.7
			h10.5c1.5,0,2.8-0.1,4-0.4c1.2-0.3,2.2-0.7,3.1-1.2v1.1c0,0.6-0.1,1.1-0.3,1.5c-0.2,0.4-0.5,0.8-0.8,1.1c-0.5-0.2-1.1-0.4-1.6-0.5
			c-0.6-0.1-1.2-0.2-1.9-0.2c-1.1,0-2,0.1-2.9,0.4c-0.9,0.3-1.6,0.6-2.3,1.1c-0.6,0.5-1.1,1.1-1.5,1.8c-0.4,0.7-0.5,1.5-0.5,2.3
			c0,0.9,0.2,1.7,0.5,2.4c0.3,0.7,0.8,1.3,1.5,1.8c0.6,0.5,1.4,0.8,2.3,1.1c0.9,0.3,1.8,0.4,2.9,0.4c1,0,2-0.1,2.9-0.4
			c0.9-0.3,1.6-0.6,2.2-1.1c0.6-0.5,1.1-1.1,1.5-1.8c0.4-0.7,0.5-1.5,0.5-2.3c0-0.7-0.1-1.4-0.4-2c-0.3-0.6-0.6-1.2-1-1.6
			c0.6-0.4,1.1-0.9,1.6-1.6c0.5-0.6,0.7-1.4,0.7-2.4v-4h4.2V10.5z M101.7,27c-0.7,0.5-1.6,0.7-2.7,0.7c-1.1,0-2-0.2-2.7-0.7
			c-0.7-0.5-1-1.2-1-2.2c0-1,0.3-1.7,1-2.2c0.7-0.5,1.6-0.8,2.7-0.8c1.1,0,2,0.3,2.7,0.8c0.7,0.5,1,1.2,1,2.2
			C102.8,25.7,102.4,26.5,101.7,27z M124.7,15.8c-0.4-0.5-0.8-0.8-1.3-1.1c-0.4-0.2-1-0.4-1.7-0.6c0.7-1,1.3-2.1,1.8-3.2
			c0.5-1.1,0.8-2.1,0.9-3.1c0.1-0.8,0-1.5-0.4-2.1c-0.3-0.6-0.9-0.8-1.7-0.8h-10.2v2.9h8.1c0.2,0,0.4,0.1,0.5,0.2
			c0.1,0.1,0.1,0.3,0.1,0.6c-0.2,1-0.6,2-1.2,3c-0.6,1-1.3,2-2.2,3c-0.9,1-1.8,1.9-2.9,2.8c-1.1,0.9-2.2,1.8-3.4,2.5l1.8,2.6
			c1.3-0.9,2.6-1.9,3.8-2.9c1.2-1,2.3-2.1,3.3-3.3c0.5,0.1,0.9,0.3,1.3,0.5c0.4,0.2,0.7,0.5,1,0.8c0.4,0.5,0.9,1.2,1.5,2.1
			c0.6,0.9,1.2,1.8,1.8,2.7l2.4-1.8c-0.6-0.8-1.1-1.7-1.7-2.6C125.7,17.2,125.2,16.5,124.7,15.8z M130,27.9h3.5V4H130V27.9z
			 M151.1,15.7c1.5-1.1,2.8-2.4,3.7-3.8c0.6,0.1,1.1,0.2,1.6,0.4c0.5,0.2,0.9,0.5,1.3,0.8c0.3,0.3,0.7,0.7,1.2,1.1
			c0.5,0.4,1,0.8,1.5,1.3c0.5,0.5,1,0.9,1.5,1.4c0.5,0.5,1,0.9,1.5,1.4l2.1-2.5c-0.5-0.4-1-0.9-1.6-1.4c-0.6-0.5-1.1-1-1.6-1.5
			c-0.6-0.5-1.1-0.9-1.6-1.3c-0.5-0.4-0.9-0.8-1.3-1.1c-0.5-0.4-1-0.6-1.6-0.8c-0.6-0.2-1.2-0.2-1.8-0.2c0.1-0.4,0.2-0.7,0.2-1.1
			s0.1-0.8,0.1-1.2V6.4c0-0.5,0-1-0.1-1.5c-0.1-0.5-0.2-0.9-0.4-1.3l-3.4,0.9c0.1,0.4,0.2,0.7,0.3,1.1c0.1,0.4,0.1,0.7,0.1,1v0.5
			c0,1.7-0.7,3.3-2.1,4.7c-1.4,1.5-3.3,2.6-5.8,3.5l1,2.9C147.8,17.7,149.6,16.8,151.1,15.7z M156.8,16.8h-3.5v5.7h-9.8v2.8h23.1
			v-2.8h-9.8V16.8z M188.4,4v8.8h-3.3V4h-3.2v23.3h3.2V15.8h3.3v12.1h3.2V4H188.4z M177.2,5h-8.8v2.8h7.2c0.2,0,0.3,0,0.4,0.1
			c0.1,0.1,0.1,0.3,0.1,0.6c-0.1,1.3-0.4,2.5-0.9,3.7c-0.5,1.2-1.1,2.2-1.8,3.3c-0.7,1-1.6,2-2.5,2.8c-0.9,0.9-1.9,1.7-2.8,2.4
			l2,2.6c2.7-2.1,4.8-4.4,6.5-6.9c1.7-2.5,2.6-5.4,2.9-8.7c0.1-0.8-0.1-1.5-0.5-2C178.7,5.2,178.1,5,177.2,5z"/>
	</g>
</g>
</svg>
